<svg xmlns="http://www.w3.org/2000/svg" xml:space="preserve" viewBox="0 0 655 651"><path fill="#BAC0BE" d="M656 229v423H1V1h655zM129.284 540.291c.122.146.273.25 1.394.565 15.764-.037 31.527-.074 47.969-.026 1.084-.237 2.168-.474 3.76-.235 1.628.115 3.257.335 4.885.33 18.933-.051 37.867-.137 57.435-.077 2.073-.02 4.146-.04 6.86.055 6.78-.046 13.56-.092 21.097-.043 13.256.082 26.511.219 39.767.226 9.169.005 18.338-.168 28.149-.08 9.443-.08 18.886-.162 29.182-.135 17.99.044 35.98.118 53.971.119 9.402 0 18.804-.128 29.14-.037 18.972.154 37.945.336 56.918.447 5.584.032 8.21-2.493 8.212-7.626q.013-35.99.015-71.979c.002-50.062.046-100.124-.02-150.185-.03-23.082-.244-46.164-.496-69.244-.02-1.8-1-3.59-1.769-5.988-2.554-.889-5.092-2.482-7.666-2.545-10.907-.265-21.824-.086-32.738-.051-35.393.111-70.787.328-106.181.32-34.776-.01-69.552-.292-104.328-.363-21.136-.043-42.272.076-63.408.144-21.966.07-43.933.061-65.895.39-2.596.04-5.164 1.995-8.248 2.79-.686 3.143-1.967 6.285-1.971 9.43-.11 91.16-.093 182.32-.095 273.48 0 4.334-.413 8.726.18 12.977.335 2.41 2.326 4.588 3.621 7.014 0 0 .134.074.26.327M97.307 68.113c-5.748.689-7.94 2.957-8.14 8.578-.112 3.16-.052 6.327-.119 9.49-.25 11.805-.698 23.61-.705 35.415-.003 5.85 3.74 9.032 9.21 8.733 4.951-.27 7.093-2.881 7.172-8.816.07-5.327-.029-10.658.178-15.979.304-7.856 8.685-18.575 16.05-20.142.368 2.606.878 5.166 1.069 7.75.748 10.114 1.341 20.24 2.105 30.354.368 4.865 3.87 7.73 8.778 7.47 4.733-.252 6.99-2.568 6.877-7.926-.134-6.312-.157-12.716-1.262-18.895-1.453-8.129 2.991-12.944 8.356-17.35 4.453-3.66 7.737-2.131 8.29 3.725 1.03 10.918 1.681 21.873 2.817 32.779.611 5.865 4.018 8.29 9.476 7.567 5.128-.68 6.793-3.201 6.22-9.33-.695-7.443-1.265-14.898-2.072-22.328-.628-5.775-1.098-11.622-2.416-17.256-2.55-10.904-13.236-15.948-23.258-11.066-3.465 1.687-6.44 4.378-9.904 6.794-3.462-5.526-8.69-9.282-14.893-8.23-5.622.952-10.818 4.418-16.086 6.726-.27-3.548-2.028-7.031-7.743-8.063m315.022 1.95c-6.475-4.161-11.97-1.448-12.271 6.19a1580 1580 0 0 0-.886 29.94c-.113 5.493-.224 11.01.147 16.485.343 5.061 4.024 7.64 9.488 7.316 4.548-.27 6.177-2.247 6.237-7.765.046-4.164.107-8.334-.055-12.493-.378-9.72 4.647-16.727 11.395-22.822 1-.902 2.88-1.72 3.957-1.368.9.295 1.615 2.326 1.73 3.648.5 5.797.729 11.618 1.1 17.427.37 5.811.613 11.639 1.245 17.423.52 4.755 4.256 7.321 9.304 6.895 4.54-.383 6.279-2.465 6.102-7.876-.19-5.818-.216-11.691-1.074-17.427-1.285-8.595 2.71-14.329 8.996-19.179 3.846-2.966 7.096-1.806 7.825 3.063.49 3.273.358 6.634.59 9.95.579 8.29.923 16.613 1.924 24.855.564 4.648 5.22 7.255 9.695 6.308 4.841-1.025 6.262-3.445 5.736-8.811-.696-7.111-1.045-14.256-1.686-21.373-.55-6.123-.772-12.342-2.076-18.314-2.595-11.893-15.1-16.742-25.348-10.173-2.755 1.765-5.362 3.76-8.265 5.81-3.593-5.508-8.424-9.753-14.858-8.388-5.648 1.198-10.832 4.587-15.901 6.864-.668-1.476-1.606-3.549-3.05-6.185M269.075 87.63l-4.712 3.492c-.275-1.793-.543-2.723-.54-3.652.024-13.32.137-26.64.112-39.959-.01-4.663-2.168-6.491-7.458-6.307-3.867.134-7.361.982-7.491 6.04-.638 24.784-1.365 49.565-1.97 74.35-.132 5.4 2.33 7.792 7.787 8.135 4.226.265 7.219-2.396 7.774-7.32.335-2.965.406-6 .194-8.975-.267-3.746 2.245-5.28 4.974-5.76 1.58-.279 4.031.932 5.178 2.26 4.665 5.408 8.764 11.307 13.484 16.662 4.163 4.722 9.334 5.131 13.185 1.73 3.305-2.918 2.744-6.483-1.661-11.738-4.698-5.605-9.262-11.323-13.955-16.932-1.933-2.31-2.093-3.913.503-6.162 4.637-4.018 8.961-8.434 13.119-12.956 3.155-3.432 2.638-7.458-.818-10.637-3.025-2.783-7.783-2.51-10.74.523-5.455 5.596-10.957 11.146-16.965 17.206m61.374 20.214c6.242-2.72 12.718-5.01 18.674-8.255 9.809-5.343 11.45-16.46 2.916-23.52-4.319-3.574-10.554-6.277-16.105-6.65-18.071-1.216-33.682 15.378-31.188 36.07 2.098 17.413 18.043 27.86 35.517 23.903 5.45-1.234 10.821-3.333 15.839-5.82 4.928-2.444 6.072-7.749 3.415-11.873-2.367-3.673-5.63-3.65-10.851-.727-3.576 2.002-7.444 3.75-11.4 4.737-5.552 1.386-11.124-1.195-13.717-5.736 2.103-.65 4.13-1.277 6.9-2.13m211.692-26.125c-3.942-8.59-11.35-12.042-20.09-12.457-12.317-.583-21.55 5.198-27.193 15.979-5.713 10.916-7.424 22.32.346 33.05 7.537 10.408 18.531 13.575 30.55 11.024 6.41-1.36 12.572-4.824 18.254-8.304 3.295-2.018 2.872-6.3.63-9.42-2.377-3.304-5.716-3.755-9.24-1.578-1.84 1.136-3.572 2.454-5.441 3.536-7.03 4.07-16.923 2.706-20.938-3.292 1.627-.556 3.16-.974 4.606-1.592 7.168-3.066 14.513-5.8 21.408-9.394 6.596-3.437 9.327-9.252 7.108-17.552m-346.38-6.525c-6.205 5.214-11.72 10.992-13.798 19.115-2.844 11.113-2.13 21.63 7.034 29.82 8.25 7.374 17.876 7.581 27.568 3.502 3.63-1.528 5.74-1.622 9.251.794 2.457 1.692 7.437 1.255 10.592.006 3.878-1.536 1.736-5.103.783-8.198-1.788-5.808-3.813-11.739-4.226-17.723-.488-7.076.897-14.263.883-21.401-.004-2.248-1.29-5.625-3.024-6.554-11.405-6.11-23.047-7.306-35.063.639m364.344 54.522c3.699-2.472 4.777-6.216 3.427-10.028-.764-2.158-3.244-4.948-5.188-5.147-2.683-.275-6.316.892-8.22 2.777-2.554 2.526-2.642 6.362-.248 9.62 2.42 3.292 5.518 4.68 10.229 2.778"/><path fill="#E6AB6C" d="M127.792 237.334c2.581-1.066 5.149-3.021 7.745-3.06 21.962-.33 43.929-.32 65.895-.39 21.136-.069 42.272-.188 63.408-.145 34.776.07 69.552.353 104.328.362 35.394.01 70.788-.208 106.181-.32 10.914-.034 21.831-.213 32.738.052 2.574.063 5.112 1.656 7.506 2.781-1.303 3.107-3.371 5.963-3.416 8.85-.14 8.963.663 17.935.78 26.908.164 12.664.043 25.332.04 37.998-.001 1 .252 2.124-.113 2.975-1.04 2.426-2.34 4.74-3.101 6.24l-2.034-2.575-1.897 1.255 1.81 7.411 4.724-1.012c1.321 7.35 1.006 9.068-1.964 11.725l-1.265-7c-1.464.62-2.034 1.175-2.003 1.695.185 3.193 1.124 6.476.64 9.543-.738 4.67-2.523 9.167-3.683 13.782-.649 2.58-.936 5.252-1.385 7.882l.963.158.627-2.997 3.423 4.897c-3.657 1.558-2.354 4.098-1.616 6.84 2.473 9.188 5.75 18.328 6.756 27.696 1.109 10.344.054 20.92-.087 31.393-.004.261-.355.518-.725 1.026l-1.701-1.898-1.153 3.098-2.205-5.596-2.715 7.637-.647-4.865c-1.824 8.262-2.738 16.48-3.64 24.698-.055.494.157 1.086-.045 1.486-2.78 5.533 1.26 8.66 4.437 13.12l1.134-7.107c.698 2.827 1.559 7.17.263 7.954-5.466 3.313-1.52 7.578-3.194 12.498 2.66-1.212 4.195-1.524 5.129-2.445.936-.924 1.274-2.455 1.922-3.82 4.283 4.63 4.26 6.372.072 10.731 3.664 2.854 4.233 7.481 1.957 12.138-.763 1.56-.84 3.664-.63 5.448.437 3.719 1.757 7.38 1.835 11.083.112 5.383-.861 10.787-.788 16.174.056 4.155-1.593 4.819-5.438 5.598-6.916 1.401-14.112-4.28-20.657 1.13-.002.001-.211-.355-.31-.348-4.5.319-8.995.73-13.5.942-1.011.048-2.278-.327-3.05-.965-6.284-5.193-12.624-4.204-17.184 2.797-9.402.07-18.804.198-28.206.198-17.99-.001-35.98-.075-54.528-.466-.684-1.91-.812-3.472-.993-5.685-4.041.268-8.326-.52-11.356 1.075-2.685 1.414-4.256.773-6.27-.044-4.801-1.947-9.54.207-10.649 4.954-9.168.094-18.337.267-27.506.262-13.256-.007-26.511-.144-40.293-.552-1.145-2.281-1.765-4.236-2.124-5.368-5.409.643-10.581 1.03-15.638 2.011-1.333.26-2.31 2.358-3.45 3.612-2.073.02-4.146.04-6.402-.3.543-5.56-2.894-3.054-4.894-2.802-4.997.628-10.285 2.869-14.893 1.868-9.65-2.098-19.024-.612-28.517-.157-4.78.23-9.56.48-14.34.721-1.085.237-2.169.474-3.76.34-4.513-.934-8.52-1.96-12.528-1.97-12.2-.034-24.402.323-36.763.213-.256-1.598-.564-2.907-.41-4.158.423-3.426 1.528-6.833 1.493-10.238-.121-12.132-.653-24.259-.936-36.39-.27-11.57.704-23.184-1.25-34.696-.047-.282.302-.611.321-.927.65-10.837 1.604-21.67 1.818-32.516.18-9.194-.57-18.403-.76-27.609-.082-3.978.225-7.964.324-11.948.173-7.02.392-14.04.452-21.06.027-3.264-.417-6.53-.403-9.793.048-11.3.25-22.6.305-33.9.043-9.069-.065-18.139-.065-27.208 0-5.28 1.414-11.041-.263-15.702-1.615-4.487-.698-7.744.476-11.578.46-1.504.763-3.197.57-4.733-.79-6.319-1.8-12.61-2.729-18.912m14.839 137.937c-.25.209-.463.45-1.364 1.026-.422 3.178-1.108 6.348-1.211 9.536-.195 6.064-.057 12.14-.057 18.21l1.86-.029c0-2.59-.1-5.184.02-7.768.312-6.752.722-13.5 1.727-20.28l2.195-3.766-1.41-.42c-.131.743-.262 1.485-.77 2.5-.24.202-.438.44-.99.99m-1.09-19.661c-.177 1.797-.355 3.594-.28 6.077 1.817 1.83 4.267 1.916 4.403-.665.44-8.345.164-16.729.164-25.097l-1.916.053c.244 3.191.723 6.386.673 9.572-.065 4.196 2.472 8.784-1.677 11.845-.303-.798-.606-1.596-.469-2.966l.507-4.735-.944-.025c0 1.778 0 3.555-.46 5.94m-.435 70.863.916.852.296-.33c-.44-.33-.88-.661-1.317-1.742 0-.751-.001-1.502.59-2.012 1.042-.661 2.425-1.095 3.05-2.034 1.041-1.565 1.597-3.453 3.037-4.953.234 1.805 1.33 4.565.562 5.26-5.548 5.01-3.132 11.086-2.582 16.77 1.26 13.012 3.588 25.96 4.116 38.99.432 10.677-1.283 21.426-1.713 32.157-.285 7.104.78 7.628 7.818 4.474 2.398-.271 4.795-.542 7.729-.399 1.206.515 2.926.688 3.534 1.601 3.388 5.087 7.1 7.313 12.766 3.01 1.487-1.13 3.845-1.034 5.646-1.848 1.904-.86 3.622-2.135 6.146-3.275 5.934-.044 11.869-.036 17.8-.16 2.126-.044 4.244-.405 6.747-1.226 2.032-1.062 4.065-2.124 5.83-2.5l-1.169 3.505c2.888.172 5.014.298 6.965.983 1.726.776 3.436 2.181 5.18 2.224 10.44.254 20.89.11 31.335.277 5.154.082 10.307.825 15.453.758 5.05-.067 10.095-1.194 15.134-1.141 20.071.21 40.138.803 60.208 1.05 13.237.164 26.48-.063 39.719-.032 11.414.027 22.827.248 34.24.25 19.968.004 39.935-.151 59.901-.084 2.802.009 3.996-.78 3.981-3.6-.028-5.14.14-10.282.13-15.424-.018-10.743-.125-21.487-.146-32.23-.014-7.6.087-15.2.077-22.8q-.02-12.854-.151-25.708c-.033-3.257.608-6.769-2.985-9.832-.328-3.107-.656-6.214-.483-9.72.482-3.907 1.182-7.8 1.4-11.722.478-8.612.713-17.237 1.546-26.408 0-3.88 4.361-7.953-.53-12.17.016-.37.032-.738.59-1.296a22 22 0 0 0 .398-2.432s.047-.298.297-.648c-.084-.388-.167-.775-.309-1.455 0 0-.019-.299.508-.96.172-12.064.445-24.128.475-36.193.015-6.405-.692-12.82-.514-19.214.154-5.575 1.47-11.125 1.512-16.691.019-2.464-1.838-4.942-2.809-8.143.325-1.416.65-2.831 1.125-4.324l.013-.197s-.172.267-.72.336c-.937.295-2.64.495-2.69.9-.47 3.818-3.608 2.7-5.51 2.714-6.405.045-12.815-.666-19.219-.6-13.532.141-27.06.85-40.59.87-64.24.1-128.478.048-192.716.049-13.903 0-27.806-.064-41.708.04-4.058.03-7.039-.144-5.557-5.714.377-1.417-1.312-3.873-2.723-5.04-.589-.488-3.926.793-4.3 1.868-1.586 4.547-3.623 2.086-5.602.512-1.267 3.576-.338 8.394-6.213 8.208-3.896-.123-7.84-.168-11.683.348-1.117.15-2.704 2.3-2.793 3.62-.335 4.976.081 10-.238 14.978-.164 2.57-1.284 5.08-2.226 8.557.088 1.05.513 3.277.407 5.479-.2 4.114-1.027 8.212-1.038 12.318-.087 34.149-.025 68.298-.09 102.447-.006 2.794-.625 5.587-1.648 8.526-1.77 2.285-3.54 4.57-5.89 6.838l-2.957-2.26c-.889 3.284-.057 5.165 3.642 5.748m4.454-147.343 2.385 1.56-1.355-22.668c-.597 4.46-.486 8.89-.688 13.306-.042.919-1.244 1.785-1.907 1.739-.22-7.62.578-15.325-.832-22.983-1.407 4.076-2.656 7.579-3.806 11.114-.246.758-.203 1.635-.172 2.453.255 6.621.485 13.244.828 19.861.409 7.892.922 15.78 1.39 23.668l.945-.006v-17.698l1.008.012 1.02 5.934.62-.089c0-5.454 0-10.908.564-16.203m-7.499 99.03 1.248-17.273c-3.798 3.948-4.065 45.375-1.29 49.922 0-10.93 0-21.36.042-32.65M144 401.407l.569 10.141.673-.084v-29.859l-1.242.008zm-7.052-156.53c-.632.219-1.824.47-1.814.65.357 6.22.828 12.431 1.283 18.644.567-4.47.891-8.906 1.06-13.348.067-1.762-.21-3.537-.53-5.946m8.515 228.973.886 6.518.947-.095-1.223-19.61-.831.044c0 4.092 0 8.185.22 13.143m-9.19-128.385 1.278 9.53.31-.157v-22.012l-.548.023c-.315 3.92-.631 7.839-1.04 12.616m67.139-108.485h7.77c-6.835-.857-13.623-.874-20.41-.827-.563.004-1.124.442-2.056.833 4.897 0 9.317 0 14.696-.006m-61.388 105.263.602.98c.092-.132.263-.264.264-.396.014-3.722.011-7.444.011-11.166h-.895c0 3.287 0 6.574.018 10.582m1.266 104.126.907 4.908 1.663-.525c-.721-1.61-1.443-3.221-2.57-4.383M142 323.124l.19 2.31.865-.07-.44-7.325-.988.082c.122 1.431.245 2.863.373 5.003m.276 113.69 1.08 3.677 1.212-.492c-.72-1.255-1.44-2.511-2.292-3.186m2.898-131.932-.518-3.257-.747.14.516 5.25q.446-.075.893-.152c0-.454 0-.908-.144-1.98m365.835 214.046.353 1.447.401-.1v-4.739l-.573-.022c-.063.93-.125 1.861-.18 3.414m-365.371-62.1-.228-1.823-1.128.439c.324.58.647 1.162 1.356 1.383M508.723 313.87l1.651.173-.497-1.303c-.45.226-.901.453-1.154 1.13m-363.693 3.54.188 3.097.956-.146c-.353-1.157-.705-2.314-1.144-2.951m-3.131 91.586-.985-1.28c-.146.246-.457.669-.412.711.406.38.874.694 1.397.57m.672-95.02-.327-1.235-.818.301c.264.416.528.832 1.145.933m-3.12-58.418.502-3.09q-.409-.03-.818-.063c0 .932 0 1.864.316 3.153m6.005 73.09.288-2.163-.59-.009c0 .621 0 1.242.302 2.171M499.87 433.584l-.063.757.429.011c-.01-.253-.02-.507-.366-.768M141.62 416.79l.483.587.314-.292c-.185-.174-.37-.348-.797-.295m-5.093-90.729c-.098.22-.213.434-.28.662-.011.041.178.14.274.212.077-.23.155-.458.006-.874M510.473 495.94c.098-.22.213-.434.28-.663.01-.04-.178-.14-.274-.211-.077.229-.155.458-.006.874M141.38 368.908l.171.246s-.021-.32-.171-.246m-.554-124.424.304.096s-.193-.22-.304-.096m-2.354-1.985s.044-.018 0 0m344.031 291.973s.017.044 0 0m28.964-44.975s.045-.018 0 0M141.53 247.503s-.045.017 0 0M480.53 534.505s-.044.018 0 0m-313.059-14.008s.045-.018 0 0M144.497 367.53s-.017-.045 0 0m.006-58.06s.017.045 0 0m-5.036 108.026s.045-.018 0 0"/><path fill="#FAFBFA" d="M97.698 68.17c5.324.975 7.083 4.458 7.352 8.006 5.268-2.308 10.464-5.774 16.086-6.727 6.203-1.051 11.431 2.705 14.893 8.231 3.463-2.416 6.44-5.107 9.904-6.794 10.022-4.882 20.707.162 23.258 11.066 1.318 5.634 1.788 11.481 2.416 17.256.807 7.43 1.377 14.885 2.073 22.328.572 6.129-1.093 8.65-6.22 9.33-5.459.723-8.866-1.702-9.477-7.567-1.136-10.906-1.787-21.861-2.817-32.78-.553-5.855-3.837-7.383-8.29-3.725-5.365 4.407-9.809 9.222-8.356 17.35 1.105 6.18 1.128 12.584 1.262 18.896.114 5.358-2.144 7.674-6.877 7.926-4.908.26-8.41-2.605-8.778-7.47-.764-10.113-1.357-20.24-2.105-30.354-.191-2.584-.7-5.144-1.068-7.75-7.366 1.567-15.747 12.286-16.051 20.142-.207 5.32-.107 10.652-.178 15.979-.079 5.935-2.221 8.547-7.172 8.816-5.47.299-9.213-2.883-9.21-8.733.007-11.805.456-23.61.705-35.415.067-3.163.007-6.33.12-9.49.198-5.621 2.391-7.89 8.53-8.522M412.583 70.345a144 144 0 0 1 2.797 5.903c5.07-2.277 10.253-5.666 15.9-6.864 6.435-1.365 11.266 2.88 14.86 8.387 2.902-2.05 5.51-4.044 8.264-5.81 10.247-6.568 22.753-1.719 25.348 10.174 1.304 5.972 1.525 12.191 2.076 18.314.64 7.117.99 14.262 1.686 21.373.526 5.366-.895 7.786-5.736 8.811-4.476.947-9.131-1.66-9.695-6.308-1-8.242-1.345-16.564-1.924-24.855-.232-3.316-.1-6.677-.59-9.95-.729-4.869-3.98-6.03-7.825-3.063-6.286 4.85-10.28 10.584-8.996 19.18.858 5.735.884 11.608 1.074 17.426.177 5.411-1.563 7.493-6.102 7.876-5.048.426-8.784-2.14-9.304-6.895-.632-5.784-.875-11.612-1.246-17.423-.37-5.81-.6-11.63-1.1-17.427-.114-1.322-.829-3.353-1.729-3.648-1.076-.353-2.958.466-3.957 1.368-6.748 6.095-11.773 13.101-11.395 22.822.162 4.159.101 8.329.055 12.493-.06 5.518-1.689 7.496-6.237 7.765-5.464.323-9.145-2.255-9.488-7.316-.37-5.474-.26-10.992-.147-16.486.204-9.981.492-19.963.886-29.939.301-7.638 5.796-10.351 12.525-5.908"/><path fill="#DEA164" d="M452.425 540.872c4.094-7.081 10.434-8.07 16.719-2.877.771.638 2.038 1.013 3.05.965 4.504-.212 8.999-.623 13.499-.942.099-.007.308.35.31.347 6.545-5.409 13.74.272 20.657-1.13 3.845-.778 5.494-1.442 5.438-5.597-.073-5.387.9-10.79.788-16.174-.078-3.703-1.398-7.364-1.835-11.083-.21-1.784-.133-3.888.63-5.448 2.276-4.657 1.707-9.284-1.957-12.138 4.188-4.36 4.211-6.101-.072-10.73-.648 1.364-.986 2.895-1.922 3.82-.934.92-2.468 1.232-5.129 2.444 1.674-4.92-2.272-9.185 3.194-12.498 1.296-.785.435-5.127-.263-7.954l-1.134 7.106c-3.177-4.459-7.218-7.586-4.437-13.119.202-.4-.01-.992.044-1.486.903-8.218 1.817-16.436 3.64-24.698l.648 4.865 2.715-7.637 2.205 5.596 1.153-3.098 1.7 1.898c.371-.508.722-.765.726-1.026.141-10.474 1.196-21.05.087-31.393-1.005-9.368-4.283-18.508-6.756-27.695-.738-2.743-2.041-5.283 1.616-6.84l-3.423-4.898-.627 2.997-.963-.158c.45-2.63.736-5.301 1.385-7.882 1.16-4.615 2.945-9.112 3.683-13.782.484-3.067-.455-6.35-.64-9.543-.03-.52.54-1.075 2.003-1.696l1.265 7.001c2.97-2.657 3.285-4.374 1.964-11.725l-4.723 1.012-1.811-7.411 1.897-1.255 2.034 2.576c.761-1.5 2.06-3.815 3.1-6.24.366-.852.113-1.976.113-2.976.004-12.666.125-25.334-.04-37.998-.116-8.973-.919-17.945-.78-26.907.046-2.888 2.114-5.744 3.534-8.55.811 1.86 1.792 3.65 1.812 5.451.252 23.08.466 46.162.497 69.244.065 50.061.021 100.123.02 150.185q-.003 35.99-.016 71.979c-.001 5.133-2.628 7.658-8.212 7.626a9183 9183 0 0 1-57.386-.528m59.195-67.78-.171-.244s.021.319.17.245m-3.149-.594s.044-.018 0 0m4.033 28.97s.017.045 0 0m-5-131.998s.017.045 0 0m5.027 66.03s-.044.018 0 0"/><path fill="#FAFBFA" d="M269.338 87.385c5.746-5.815 11.248-11.365 16.703-16.96 2.957-3.034 7.715-3.307 10.74-.524 3.456 3.18 3.973 7.205.818 10.637-4.158 4.522-8.482 8.938-13.119 12.956-2.596 2.249-2.436 3.851-.503 6.162 4.693 5.61 9.257 11.327 13.955 16.932 4.405 5.255 4.966 8.82 1.661 11.738-3.851 3.401-9.022 2.992-13.185-1.73-4.72-5.355-8.819-11.254-13.484-16.661-1.147-1.329-3.599-2.54-5.178-2.262-2.729.481-5.24 2.015-4.974 5.761.212 2.975.14 6.01-.194 8.974-.555 4.925-3.548 7.586-7.774 7.321-5.457-.343-7.92-2.734-7.787-8.135.605-24.785 1.332-49.566 1.97-74.35.13-5.058 3.624-5.906 7.491-6.04 5.29-.184 7.449 1.644 7.458 6.307.025 13.32-.088 26.64-.113 39.96-.002.928.266 1.858.541 3.651a297 297 0 0 0 4.974-3.737M330.078 107.956l-6.528 2.017c2.593 4.54 8.165 7.122 13.718 5.736 3.955-.987 7.823-2.735 11.399-4.737 5.222-2.923 8.484-2.946 10.851.727 2.657 4.124 1.513 9.43-3.415 11.872-5.018 2.488-10.388 4.587-15.839 5.82-17.474 3.957-33.419-6.489-35.517-23.902-2.494-20.692 13.117-37.286 31.188-36.07 5.551.373 11.786 3.076 16.105 6.65 8.533 7.06 6.893 18.177-2.916 23.52-5.956 3.245-12.432 5.535-19.046 8.367m6.249-17.105c.887-.445 1.899-.743 2.632-1.368 1.068-.91 1.935-2.056 2.887-3.1-1.211-1.006-2.39-2.81-3.64-2.861-3.206-.131-6.711-.154-9.609 1.002-5.171 2.064-7.958 7.835-6.47 12.532 4.537-1.967 9.034-3.917 14.2-6.205M542.266 82.101c2.095 7.917-.636 13.732-7.232 17.17-6.895 3.593-14.24 6.327-21.408 9.393-1.446.618-2.979 1.036-4.606 1.592 4.015 5.998 13.907 7.362 20.938 3.292 1.87-1.082 3.6-2.4 5.44-3.536 3.525-2.177 6.864-1.726 9.24 1.579 2.243 3.119 2.666 7.4-.629 9.419-5.682 3.48-11.845 6.944-18.254 8.304-12.019 2.551-23.013-.616-30.55-11.024-7.77-10.73-6.06-22.134-.346-33.05 5.643-10.781 14.876-16.562 27.192-15.979 8.741.415 16.15 3.866 20.215 12.84m-18.577 8.164c2.333-1.118 6.04-2.258 2.412-5.3-3.77-3.162-8.617-2.471-12.634-.052-3.837 2.311-6.526 5.752-6.237 11.914 5.781-2.3 10.776-4.287 16.459-6.562M196.043 74.967c11.735-7.719 23.377-6.524 34.782-.413 1.734.93 3.02 4.306 3.024 6.554.014 7.138-1.371 14.325-.883 21.4.413 5.985 2.438 11.916 4.226 17.724.953 3.095 3.095 6.662-.783 8.198-3.155 1.25-8.135 1.686-10.592-.006-3.51-2.416-5.62-2.322-9.251-.794-9.692 4.08-19.319 3.872-27.568-3.502-9.164-8.19-9.878-18.707-7.034-29.82 2.079-8.123 7.593-13.9 14.079-19.34m21.937 30.339c0-5.16-.06-10.321.015-15.48.084-5.851-.791-6.748-6.552-5.839a13.1 13.1 0 0 0-4.628 1.692c-7.842 4.756-10.572 11.987-9.842 20.845.53 6.424 4.322 9.783 10.938 9.592 6.9-.2 10.017-3.255 10.07-10.81"/><path fill="#F1BC5D" d="M127.54 237.198c1.181 6.438 2.19 12.73 2.982 19.048.192 1.536-.11 3.23-.571 4.733-1.174 3.834-2.091 7.09-.476 11.578 1.677 4.661.262 10.422.263 15.702 0 9.07.108 18.14.065 27.208-.054 11.3-.257 22.6-.305 33.9-.014 3.263.43 6.53.403 9.792-.06 7.021-.279 14.041-.452 21.061-.099 3.984-.406 7.97-.324 11.948.19 9.206.94 18.415.76 27.61-.214 10.846-1.168 21.678-1.818 32.515-.019.316-.368.645-.32.927 1.953 11.512.98 23.126 1.25 34.696.282 12.131.814 24.258.935 36.39.035 3.405-1.07 6.812-1.493 10.238-.154 1.251.154 2.56.394 4.358.144.516.142.919.142.919-1.246-2.283-3.237-4.462-3.573-6.871-.592-4.251-.179-8.643-.179-12.976.002-91.16-.015-182.321.095-273.481.004-3.145 1.285-6.287 2.223-9.295"/><path fill="#FAFBFA" d="M559.767 129.886c-4.372 1.73-7.47.343-9.89-2.95-2.394-3.257-2.306-7.093.247-9.619 1.905-1.885 5.538-3.052 8.221-2.777 1.944.199 4.424 2.99 5.188 5.147 1.35 3.812.272 7.556-3.766 10.199"/><path fill="#DEA164" d="M340.279 540.915c.786-4.838 5.526-6.992 10.326-5.045 2.015.817 3.586 1.458 6.271.044 3.03-1.595 7.315-.807 11.356-1.075.18 2.213.309 3.775.567 5.631-9.313.374-18.756.455-28.52.445M182.153 540.357c4.527-.479 9.306-.73 14.087-.959 9.493-.455 18.866-1.94 28.517.157 4.608 1.001 9.896-1.24 14.893-1.868 2-.252 5.437-2.758 4.576 2.733-19.067.368-38 .454-56.934.506-1.628.004-3.257-.216-5.139-.569M129 539.893c-.025-.072-.023-.475-.007-.675 12.217-.406 24.418-.763 36.619-.73 4.009.012 8.015 1.037 12.19 1.928-15.597.366-31.36.403-47.68.214-.687-.352-.824-.475-.964-.592 0 0-.134-.074-.158-.145M251.266 540.846c.82-1.311 1.797-3.41 3.13-3.669 5.057-.982 10.23-1.368 15.638-2.01.359 1.131.979 3.086 1.745 5.319-6.633.325-13.413.37-20.513.36"/><path fill="#F1BC5D" d="M129.22 540.165c.078-.01.215.113.432.34-.095.036-.246-.068-.431-.34"/><path fill="#BABFBD" d="M488.967 397.981c.327 3.107.655 6.214.849 9.987-.39 2.127-.874 3.589-.87 5.05.059 29.586.2 59.173.265 88.76.022 9.914-.046 10.249-9.77 10.4-19.122.296-38.25.182-57.395-.273-.022-12.14-.036-23.769-.02-35.398.034-26.908.082-53.817.361-80.477a9938 9938 0 0 1 20.803 26.402c2.977 3.79 6.318 3.585 10.003 1.061 4.746-3.25 9.857-6.041 14.28-9.676 9.54-7.837 18.04-16.547 19.893-29.646.611 1.258 1.075 2.413 1.155 3.595.232 3.4.308 6.81.446 10.215"/><path fill="#DDA166" d="M147 416c.335-2.794.954-5.587.96-8.381.065-34.15.003-68.298.09-102.447.01-4.106.838-8.204 1.038-12.318.106-2.202-.32-4.429-.407-5.48.942-3.476 2.062-5.986 2.226-8.556.32-4.977-.097-10.002.238-14.977.089-1.32 1.676-3.472 2.793-3.621 3.843-.516 7.787-.47 11.683-.348 5.875.186 4.946-4.632 6.213-8.208 1.979 1.574 4.016 4.035 5.602-.512.374-1.075 3.711-2.356 4.3-1.869 1.411 1.168 3.1 3.624 2.723 5.04-1.482 5.571 1.499 5.745 5.557 5.715 13.902-.104 27.805-.04 41.708-.04 64.238-.001 128.477.051 192.715-.048 13.53-.021 27.06-.73 40.591-.87 6.404-.067 12.814.644 19.219.599 1.902-.014 5.04 1.104 5.51-2.715.05-.404 1.753-.604 2.965-.932.276-.032.28-.029.28-.029-.324 1.416-.648 2.831-1.126 4.878-.432 1.158-.71 1.686-1.18 2.336-.424.333-.6.582-.971.866-.42-.024-.588-.043-.876-.265-.316-.457-.564-.644-1.24-.784-17.846-.31-35.314-.68-52.784-.829-4.337-.037-8.68.636-13.446.944-2.71-.053-4.997-.068-7.473-.272-5.768-.113-11.345-.038-17.152.063-.23.026-.694.023-.808-.125-.413-.05-.711.05-1.243.179-.234.03-.703.068-1.006-.217-2.441-.423-4.579-.677-6.716-.68-17.859-.033-35.718-.097-53.575.02-6.793.044-13.583.536-20.395.836-.02.012.025.008-.084-.14-.403-.05-.697.05-1.228.18-.238.03-.715.066-.85-.121-9.379-.11-18.622-.033-28.096.07-.23.025-.693.021-.807-.127-.413-.05-.711.05-1.242.15-.232 0-.693-.05-.853-.21-11.754-.163-23.35-.199-34.944-.156-5.032.019-10.065.198-15.416.31-.957.003-1.595 0-2.487-.212-1.262-.056-2.27.1-3.52.283-.567.046-.89.026-1.362-.18-.447.017-.742.183-1.004.328.033-.02.07.048-.287.038-.828-.074-1.3-.139-1.883-.35-.404-.05-.696.048-.967.158.022.013-.017-.025-.301-.042-1.427-.132-2.57-.356-3.712-.343-9.475.105-18.95.366-28.424.356-7.898-.009-15.799-.5-23.693-.394-2.551.035-6.42-1.327-6.884 3.432.019.02-.008-.02-.157.088-.049.403.051.697.163 1.21.012.22-.012.657-.157.772-.048.413.048.711.17 1.458.07 3.452.115 6.455.107 9.927-.084 19.155-.115 37.841-.128 56.547.019.02-.006-.023-.155.086-.049.403.051.697.175 1.32.027.766.03 1.204-.089 1.737-.284.404-.203.652.127 1.105.002.445-.001.623-.127.895-.284.404-.203.652.127 1.105.002.445-.001.623-.127.895-.284.404-.203.652.13 1.099.01.434.01.608-.13.992-.137 29.63-.165 59.048-.112 88.467.02 10.448.236 20.895.313 31.569-.049.226-.137.68-.284.793-.202.222-.333.375-.3.433.118.204.292.375.458.536.014-.021-.024.018-.02.32-.01 1.426-.025 2.55-.001 4.006.054.773.07 1.217-.062 1.825-.05 5.053.049 9.941.146 15.088-.006.43-.012.603-.139.871-.283.407-.201.658.114.854-.008.007.018.004-.027.318-.002 8.097.04 15.88.082 23.663-6.225 3.095-7.289 2.571-7.004-4.533.43-10.73 2.145-21.48 1.713-32.157-.528-13.03-2.857-25.978-4.116-38.99-.55-5.684-2.966-11.76 2.582-16.77.769-.695-.328-3.455-.901-5.386zm2.144-40.769c.117.108.24.309.348.3.125-.009.335-.197.339-.314.028-.931.016-1.864.016-2.797l-.675-.023a25 25 0 0 0-.028 2.834m-.098 52.537.467.795c.113-.117.322-.23.325-.35.028-.93.015-1.862.015-2.793l-.611-.026c-.075.618-.15 1.237-.196 2.374m.757 75.68c-.236.23-.508.436-.676.706-.035.057.321.354.497.54.093-.29.186-.582.179-1.245m.108-137.286-.29-.863c-.174.186-.525.491-.492.54.176.265.448.467.782.323m-3.44 61.332s.043-.018 0 0"/><path fill="#F7BD53" d="M222.345 508.42c-2.032 1.062-4.065 2.124-6.603 3.374-6.678-6.073-12.922-12.268-18.985-18.635-2.234-2.346-4.054-2.37-6.26-.146a211 211 0 0 1-9.64 9.116c-1.96 1.429-3.416 3.076-5.222 4.118-3.1 1.788-6.418 3.199-9.737 4.45-.788-1.23-1.416-2.202-2.189-3.04-3.275-3.553-3.522-6.42.702-9.847 4.668-3.787 8.614-8.463 12.877-12.75 4.693-4.721 4.736-6.295.056-11.045-4.866-4.939-9.915-9.7-14.667-14.744-3.02-3.205-1.727-6.424 1.087-9.012 2.898-2.664 5.753-6.735 10.29-2.503 5.512 5.142 11.048 10.281 16.21 15.765 2.325 2.47 4.25 3.635 6.931 1.123 3.618-3.39 6.93-7.117 10.66-10.37 3.903-3.404 6.406-9.236 13.326-7.905 9.018 6.188 9.225 8.661 1.65 16.316-.771.78-1.238 1.862-2.185 2.945-4.041 3.62-7.703 7.142-11.46 10.56-2.491 2.266-2.52 4.704-.277 6.88 4.235 4.11 8.702 7.979 13.218 12.189.746.953 1.349 1.665 1.921 2.716-.038.566-.047.793-.135 1.057-.08.038-.093.248-.093.248s.185-.273.405-.014c-.153 2.832-.525 5.405-.966 7.984-.07.007-.088-.13-.315-.01-.42.402-.613.68-.717.98.089.02.118.2.118.2"/><path fill="#F8FAF9" d="M220.985 465.488c.608-.941 1.075-2.023 1.846-2.803 7.575-7.655 7.368-10.128-1.599-16.721-.216-1.758-.278-2.84-.263-4.389.052-14.84.028-29.214.082-43.94.325-1.775.571-3.196.777-4.888-.272-.557-.503-.842-.742-1.449-.044-.963-.08-1.605-.059-2.647-.006-1.47-.07-2.542-.068-4.08.122-40.776.177-81.086.232-121.395 0 0-.038-.068.233-.058.464-.049.657-.109.85-.169.322.057.645.077 1.652.127 1.565-.01 2.45-.09 3.334-.169.638.003 1.276.005 2.272.269.398.437.437.612.462 1.257.002 31.92.027 63.37.035 94.82.013 51.077.015 102.154-.208 153.36-.744.228-1.258.325-1.773.422l-7.139-.424c.45-1.349.81-2.427 1.302-3.848.134-.342.105-.523.311-.574.354-.39.501-.73.65-1.07 0 0 .018.138.425.06 4.508-4.488 4.524-6.624.48-9.543-.601-.712-1.204-1.424-2.068-2.777-.516-10.217-.77-19.794-1.024-29.37"/><path fill="#F1BC5D" d="M227.961 513.315c.602-.377 1.116-.474 2.25-.776 5.086-.079 9.551.154 14.017.158 47.215.043 94.43.024 141.645.087 9.072.012 18.144.307 27.449.581 3.07-.243 5.907-.596 8.744-.95 19.125-.055 38.253.06 57.375-.237 9.724-.151 9.792-.486 9.77-10.4-.066-29.587-.206-59.174-.266-88.76-.003-1.461.48-2.923.967-4.634 3.631 1.981 2.99 5.493 3.023 8.75.087 8.57.14 17.14.15 25.709.01 7.6-.09 15.2-.076 22.799.02 10.743.128 21.487.147 32.23.009 5.142-.159 10.283-.131 15.424.015 2.82-1.179 3.609-3.981 3.6-19.966-.067-39.933.088-59.9.084-11.414-.002-22.827-.223-34.241-.25-13.24-.031-26.482.196-39.719.033-20.07-.248-40.137-.84-60.208-1.051-5.04-.053-10.084 1.074-15.134 1.14-5.146.068-10.299-.675-15.453-.757-10.444-.167-20.894-.023-31.335-.277-1.744-.043-3.454-1.448-5.093-2.503"/><path fill="#BEBAA9" d="M220.892 442.043a67 67 0 0 1 .135 3.65c-6.766-.655-9.27 5.177-13.172 8.58-3.73 3.254-7.042 6.981-10.66 10.37-2.68 2.513-4.606 1.349-6.932-1.122-5.16-5.484-10.697-10.623-16.21-15.765-4.536-4.232-7.39-.16-10.289 2.503-2.814 2.588-4.106 5.807-1.087 9.012 4.752 5.043 9.801 9.805 14.667 14.744 4.68 4.75 4.637 6.324-.056 11.045-4.263 4.287-8.21 8.963-12.877 12.75-4.224 3.427-3.977 6.294-.702 9.847.773.838 1.401 1.81 2.084 3.347-.915 1.112-1.818 1.6-2.72 2.086-2.398.271-4.795.542-7.6.842-.449-7.753-.491-15.536-.18-23.53 1.3 1.948 2.246 4.109 3.338 6.6 5.23-4.304 10.658-8.681 15.98-13.182 3.3-2.791 1.902-5.741-.376-8.204-3.308-3.578-7.148-6.678-10.323-10.36-3.086-3.58-5.744-3.832-8.764-.228-.126-10.447-.343-20.894-.362-31.342-.053-29.419-.025-58.838.469-88.313.819.314 1.374.656 1.424 1.061 1.409 11.371-.87 22.942 2.057 34.283.69 2.676 1.485 3.944 4.36 2.978 5.57-1.87 4.562-6.46 4.872-10.75.138-1.897 1.251-4.829 2.573-5.25 1.576-.503 4.315.711 5.682 2.06 1.214 1.198 1.34 3.576 1.77 5.473.808 3.56 1.49 7.149 2.073 9.993 3.796-.94 6.3-1.559 8.798-1.865.021 1.748.046 3.181-.216 4.621-1.1.121-1.92.364-2.727.33-12.984-.533-10.54 2.488-10.939-10.4-.078-2.524-.79-5.027-1.39-8.63-2.698 3.271-2.698 3.271-2.718 11.855-.016 7.124-.059 7.088-7.028 7.641-1.305.104-2.54 1.092-3.806 1.672 13.397 2.837 10.526 3.363 10.797 13.887.028 1.101.296 2.199.484 3.292.236 1.363.504 2.72.759 4.078l2.158-.032c.156-2.749.647-5.527.408-8.24-.762-8.643.143-9.82 8.593-10.128 1.9-.07 3.796-.25 5.724.001-.017 1.136-.064 1.893-.522 2.667-9.532 1.487-9.552 1.484-10.523 10.098-.22 1.954.11 4.043-.466 5.863-.552 1.746-1.631 3.934-3.083 4.59-1.11.501-3.576-.688-4.68-1.849-1.079-1.134-1.617-3.173-1.66-4.833-.17-6.617-.777-12.818-8.744-14.743-.3-.072-.631-.009-1.602-.009v54.326c3.622-1.98 6.234-3.094 8.485-4.71 3.627-2.606 7.076-1.65 9.874.749 5.233 4.484 10.38 9.164 14.916 14.33 3.016 3.435 4.722 2.53 6.998-.273a103 103 0 0 1 5.13-5.834c5.005-5.287 10.922-9.208 17.806-11.632"/><path fill="#BDBBAF" d="M181.202 502.076c3.104-3.016 6.249-5.99 9.296-9.063 2.205-2.224 4.025-2.2 6.26.146 6.062 6.367 12.306 12.562 18.794 18.938-1.807.33-3.925.69-6.05.735-5.932.124-11.867.116-18.621.152-6.509-.008-12.198-.008-18.011-.008z"/><path fill="#F1BC5D" d="M490.89 263.095c.278-.528.556-1.056.97-1.85 1.142 2.206 2.999 4.684 2.98 7.148-.042 5.566-1.358 11.116-1.512 16.69-.178 6.395.53 12.81.514 19.215-.03 12.065-.303 24.129-.98 36.483-1.333-.716-2.164-1.723-2.972-3.154.006-1.834-.009-3.244.217-4.825.08-2.37-.08-4.567-.226-7.148.005-1.147-.004-1.912.278-2.978.486-11.474.69-22.646.826-33.819.004-.267-.755-.543-1.144-1.198.006-1.15-.003-1.917.276-2.956.11-4.11-.067-7.95-.228-12.143 0-1.063-.017-1.772.117-2.783.056-1.465-.038-2.63-.127-4.056.026-.437.049-.611.295-.944.389-.666.552-1.174.716-1.682"/><path fill="#D1B690" d="M489.868 338.052c.83 1.006 1.66 2.013 2.732 3.06.24.04.26.339.256.865.018.778.04 1.029.062 1.28l-.117.75c-.337 1.024-.604 1.596-.87 2.168-.016.369-.032.738-.262 1.697-.062 4.437.091 8.284.245 12.131-.334 8.62-.569 17.245-1.047 25.857-.218 3.921-.918 7.815-1.65 11.922-.388-3.207-.464-6.617-.696-10.016-.08-1.182-.544-2.337-1.179-4.01-.597-2.63-.848-4.752-.847-7.042.934-1.948 2.094-3.7 2.206-5.515.312-5.06.19-10.145.25-15.669.003-3.136-.003-5.825.008-8.95.314-3.133.612-5.83.91-8.528"/><path fill="#DDA166" d="M180.857 502.13c-2.173 3.24-4.691 6.534-7.987 10.846 5.813 0 11.502 0 17.649.03-1.342 1.126-3.06 2.4-4.964 3.261-1.801.814-4.16.718-5.646 1.847-5.665 4.304-9.378 2.078-12.766-3.009-.608-.913-2.328-1.086-3.803-1.808.635-.694 1.538-1.18 2.546-1.975 3.331-1.876 6.65-3.287 9.749-5.075 1.806-1.042 3.263-2.69 5.222-4.118"/><path fill="#DEA164" d="M144.997 278.97v16.361l-.62.09-1.02-5.935-1.008-.012v17.698l-.944.006c-.469-7.889-.982-15.776-1.391-23.668-.343-6.617-.573-13.24-.828-19.86-.031-.819-.074-1.696.172-2.454 1.15-3.535 2.399-7.038 3.806-11.114 1.41 7.658.612 15.363.584 23.45-.248.469-.74.47-.743.037a871 871 0 0 0-.546-8.23l-1.43.142c0 3.279-.097 6.564.09 9.833.034.596 1.23 1.125 2.184 1.763.76.683 1.227 1.288 1.694 1.892m-2.78 5.316c.01-.515.023-1.03.013-1.544 0-.007-.293-.008-.448-.012-.01.515-.02 1.03.435 1.556M138.04 378.587c-.02 10.86-.02 21.29-.02 32.22-2.775-4.547-2.508-45.974 1.29-49.922-.416 5.757-.832 11.515-1.27 17.702M142.972 375.998c-.371 6.749-.78 13.496-1.094 20.248-.12 2.584-.02 5.178-.02 7.768l-1.859.029c0-6.07-.138-12.146.057-18.21.103-3.188.789-6.358 1.819-9.686.607-.15 1.097-.15 1.097-.15"/><path fill="#DDA166" d="M143 358.031c4.057-3.698 1.52-8.286 1.585-12.482.05-3.186-.429-6.38-.673-9.572l1.916-.053c0 8.368.276 16.752-.164 25.097-.136 2.581-2.586 2.494-4.215.224.643-1.365 1.097-2.29 1.55-3.214M144 400.919v-19.307l1.242-.008v29.859l-.673.084c-.19-3.38-.38-6.76-.569-10.628M145.279 279.049c-.749-.684-1.215-1.289-1.979-2.346-.295-1.203-.293-1.952-.292-2.702h.738c.913-.89 2.115-1.756 2.157-2.675.202-4.416.091-8.846.688-13.306l1.355 22.669c-.968-.634-1.676-1.098-2.667-1.64"/><path fill="#DEA164" d="M137.047 245.196c.22 2.089.497 3.864.43 5.626-.169 4.442-.493 8.878-1.06 13.348-.455-6.213-.926-12.425-1.283-18.643-.01-.182 1.182-.432 1.913-.331"/><path fill="#DDA166" d="M145.351 473.416c-.11-4.525-.11-8.618-.11-12.71l.831-.045 1.223 19.61-.947.096a343 343 0 0 0-.997-6.95"/><path fill="#DEA164" d="M136.317 345.035c.363-4.348.679-8.268.994-12.187l.548-.023v22.012l-.31.156c-.426-3.176-.852-6.353-1.232-9.958"/><path fill="#F1BC5D" d="M492.163 359.727c-.403-3.57-.556-7.418-.488-11.577 5.1 3.349.738 7.422.488 11.577"/><path fill="#F7BD53" d="M202.93 236.982c-4.9.003-9.319.003-14.216.003.932-.391 1.493-.829 2.057-.833 6.786-.047 13.574-.03 20.41.827-2.59 0-5.181 0-8.25.003"/><path fill="#DDA166" d="M141.002 423c1.77-2.285 3.54-4.57 5.654-6.928L147 416c-.76 1.752-1.317 3.64-2.358 5.205-.625.939-2.008 1.373-3.346 1.914z"/><path fill="#DEA164" d="M141.002 425.999c-3.594-.11-4.426-1.992-3.537-5.276 1.135.868 2.046 1.564 3.247 2.268L141 423c0 .75.002 1.5.001 2.626zM142.013 341.882c-.009-3.648-.009-6.935-.009-10.222h.895c0 3.722.003 7.444-.011 11.166 0 .132-.172.264-.264.396-.2-.327-.402-.653-.611-1.34M143.491 446.143c.924 1.387 1.646 2.997 2.367 4.608l-1.663.525c-.302-1.636-.605-3.272-.704-5.133M141.996 322.77c-.125-1.786-.248-3.218-.37-4.65l.987-.081.44 7.325-.863.07c-.064-.77-.127-1.54-.194-2.665M142.954 357.713c-.408 1.243-.862 2.167-1.631 3.19-.137-1.7.04-3.497.448-5.599.229-.304.228-.305.228-.305.303.799.606 1.597.955 2.714"/><path fill="#DDA166" d="M143.289 375.982c-.317.016-.807.015-1.052.015-.07-.276.144-.517.78-1.003.622-.48.821-.717.982-.986l.391-2.228 1.411.42c-.732 1.256-1.463 2.511-2.512 3.782"/><path fill="#DEA164" d="M142.342 436.523c.786.965 1.505 2.22 2.225 3.476l-1.212.492c-.36-1.226-.72-2.452-1.013-3.968M145.245 305.19c.072.764.072 1.218.072 1.672l-.893.152-.516-5.25.747-.14c.172 1.086.345 2.172.59 3.567M511.005 518.617c.06-1.242.121-2.172.184-3.103l.573.022v4.74l-.4.1a18 18 0 0 1-.357-1.76M145.445 457.007c-.516-.4-.84-.982-1.163-1.563l1.128-.44c.076.608.152 1.216.035 2.003M142 355q.002-2.665.002-5.332l.944.025c-.17 1.578-.338 3.157-.727 5.02-.22.286-.219.287-.218.288M508.624 313.644c.352-.452.803-.679 1.253-.905l.497 1.303c-.55-.058-1.1-.115-1.75-.398"/><path fill="#DDA166" d="M145.073 317.149c.396.897.748 2.054 1.1 3.211l-.955.146a69 69 0 0 1-.145-3.357"/><path fill="#DEA164" d="M141.863 409.224c-.487-.104-.955-.418-1.361-.798-.045-.042.266-.465.412-.711.328.427.657.853.949 1.509M142.395 314.132c-.44-.258-.705-.674-.97-1.09l.82-.301c.108.411.217.823.15 1.391M139.293 255.379c-.158-1.11-.158-2.043-.158-2.975l.818.064c-.168 1.03-.335 2.06-.66 2.91"/><path fill="#DDA166" d="M145.305 328.492c-.15-.775-.15-1.396-.15-2.017l.59.009c-.097.72-.193 1.442-.44 2.008"/><path fill="#DEA164" d="M500.04 433.588c.178.257.187.51.197.764l-.429-.01c.021-.253.042-.506.232-.754M141.741 416.677c.307.06.491.234.676.408l-.314.292c-.161-.196-.322-.391-.362-.7M141 426q.657.498 1.319.993l-.296.33c-.306-.284-.61-.568-.969-1.088-.052-.236-.054-.235-.055-.234M136.64 326.154c.036.323-.042.552-.119.78-.096-.071-.285-.17-.273-.21.066-.23.18-.444.392-.57"/><path fill="#F1BC5D" d="M492.202 346.08c-.005-.477.262-1.049.62-1.924a6 6 0 0 1-.62 1.925"/><path fill="#DEA164" d="M510.36 495.846c-.036-.322.042-.551.119-.78.096.072.285.17.273.211-.066.229-.18.443-.392.57M141.455 368.87c.075-.036.096.284.096.284s-.171-.246-.096-.283M140.881 244.422c.056-.062.25.158.25.158s-.305-.096-.25-.158M138.494 242.49c.022-.009-.022.009 0 0M482.512 534.494c.008.022-.009-.022 0 0M511.49 489.488c.022-.009-.023.009 0 0M141.506 247.512c-.022.008.023-.009 0 0M480.508 534.514c-.022.009.022-.01 0 0"/><path fill="#DDA166" d="M492.998 255.998c-.001-.002.171-.27.171-.27s-.013.198-.089.236c-.075.04-.08.036-.082.034M167.494 520.488c.022-.009-.023.009 0 0"/><path fill="#F1BC5D" d="M493.043 343.081c-.147-.075-.169-.326-.158-.957.116.007.2.394.158.957"/><path fill="#DDA166" d="M144.488 367.509c-.008-.023.009.022 0 0"/><path fill="#DEA164" d="M143.81 374.144q.043.2-.596.71-.046-.203.596-.71"/><path fill="#DDA166" d="M144.512 309.493c.008.023-.009-.022 0 0"/><path fill="#DEA164" d="M139.49 417.488c.022-.009-.023.009 0 0"/><path fill="#E6AB6C" d="M511.545 473.13c-.075.037-.096-.282-.096-.282s.17.245.096.282M508.492 472.49c.022-.009-.022.009 0 0M512.512 501.491c.008.023-.009-.022 0 0M507.512 369.494c.008.022-.009-.023 0 0M512.508 435.51c-.022.009.022-.009 0 0"/><path fill="#BAC0BE" d="M335.992 91.02c-4.831 2.119-9.328 4.069-13.865 6.036-1.488-4.697 1.299-10.468 6.47-12.532 2.898-1.156 6.403-1.133 9.608-1.002 1.25.05 2.43 1.855 3.641 2.86-.952 1.045-1.82 2.191-2.887 3.101-.733.625-1.745.923-2.967 1.537M523.345 90.41c-5.34 2.13-10.334 4.117-16.115 6.417-.289-6.162 2.4-9.603 6.237-11.914 4.017-2.42 8.863-3.11 12.634.052 3.628 3.042-.08 4.182-2.756 5.444M217.984 105.774c-.056 7.088-3.174 10.143-10.073 10.343-6.616.191-10.408-3.168-10.938-9.592-.73-8.858 2-16.09 9.842-20.845a13.1 13.1 0 0 1 4.628-1.692c5.76-.909 6.636-.012 6.552 5.839-.074 5.159-.015 10.32-.011 15.947"/><path fill="#E75049" d="M486.242 376.88c.252 2.124.503 4.246.778 6.784-1.507 13.606-10.006 22.316-19.546 30.153-4.424 3.635-9.535 6.426-14.281 9.676-3.685 2.524-7.026 2.728-10.003-1.061-6.852-8.721-13.71-17.436-20.906-26.752-2.888-7.443-4.968-14.333-2.086-21.742 1.07.277 1.894.629 2.795 1.047.077.066.234.194.281.48 1.218 3.378 2.437 1.24 3.473.243 2.601-2.501 5.115-5.094 7.947-7.934-1.269-5.893-1.269-5.894 5.76-5.76.828.017 1.657.039 2.815.135.78.05 1.23.022 1.7-.048.021-.043-.058.01.09.276.73.406 1.31.547 1.915.684.022-.003-.018.025.096.34 1.717 2.103 3.158 4.09 4.993 5.598.914.752 2.55.626 3.893 1.26.784 2.14 1.532 3.919 2.273 5.68 6.97-2.059 9.682-5.89 8.298-10.944 4.1.344 7.762.707 11.45 1.05.027-.018-.019.033.095.288.728.634 1.343 1.012 2.137 1.52.18.13.604.267.764.57 1.863 3.021 3.566 5.74 5.27 8.458"/><path fill="#F8FAF9" d="M419.952 374.012c-2.636 7.335-.556 14.225 2.095 21.42.06 27.258.013 54.167-.022 81.075-.015 11.63 0 23.259.02 35.398-2.816.864-5.653 1.217-8.704.965-.187-83.023-.16-165.44-.008-248.092.338-.728.552-1.22.766-1.712 2.285.015 4.571.03 7.31.386.586.722.718 1.102.79 1.955-.052 34.586-.044 68.7-.191 103.114-.789 2.03-1.422 3.76-2.056 5.491"/><path fill="#BABFBD" d="M413.208 265.015c-.027 82.416-.054 164.832-.1 247.744-9.091.332-18.163.037-27.235.025-47.215-.063-94.43-.044-141.645-.087-4.466-.004-8.93-.237-13.787-.288-.397-51.002-.4-102.08-.412-153.156-.008-31.45-.033-62.9.344-94.738 6.548-.09 12.7.244 18.856.501 8.491.354 16.984.832 25.476.823 1.77-.002 3.539-1.9 5.308-2.924 0 0 .461.05.974.054.7 0 .888-.003 1.075-.006 0 0 .463.004.84.35 1.054.763 1.712 1.507 2.41 1.548 7.336.422 14.677.869 22.02.936 1.21.01 2.435-1.78 3.654-2.738 0 0 .477-.037.99-.062.695-.029.878-.032 1.062-.036 0 0-.045.004.007.387 1.978 1.13 3.912 2.54 5.83 2.52 14.978-.16 29.953-.732 44.932-.896 9.468-.104 18.94.315 28.412.332.593 0 1.188-1.46 1.783-2.241 0 0 .47-.039.984-.065.702-.029.889-.032 1.076-.035 0 0 .464.003.768.331 1.277 1.02 2.248 2.303 3.22 2.304 4.386.004 8.772-.355 13.158-.583M353.75 378.514a28 28 0 0 1-2.165-2.18c-2.049-.416-4.102-1.21-6.146-1.187-15.891.177-31.783.41-47.666.918-2.145.069-5.692 1.405-6.035 2.789-.61 2.459.735 5.403 1.498 8.644.269.482.538.965.698 1.961 2.04.847 4.05 2.345 6.123 2.434 12.659.544 25.33.967 37.998.998 4.743.012 9.573-.79 14.19-1.924 1.88-.462 4.617-2.782 4.633-4.282.027-2.546-1.793-5.11-3.128-8.171m-59.074 34.922c.224 4.514 3.926 3.411 6.31 3.463 10.38.228 20.77.198 31.153.06 5.77-.076 11.618-.07 17.26-1.068 2.364-.418 5.387-2.97 6.143-5.215 1.069-3.174 1.478-7.293-3.142-10.024-3.012-.24-6.022-.674-9.035-.685-15.26-.056-30.522.042-45.782-.024-3.182-.014-5.803.71-6.302 4.16-.514 3.556-1.323 7.542 3.395 9.333m58.029 50.942c-2.018-.767-4.054-2.242-6.05-2.19-15.955.42-31.903 1.133-47.853 1.747-2.951.114-6.68-.599-7.437 3.286-.73 3.749-1.777 8.088 2.812 11.521 3.115 1.082 6.2 2.988 9.351 3.106 14.84.552 29.7.799 44.55.698 2.991-.02 7.22-.992 7.405-5.116.186-4.171 3.2-9.23-2.778-13.052m-58.252-163.812c-.547 2.485-1.276 4.946-1.61 7.46-1.592 11.958 4.156 20.29 13.394 26.93 18.96 13.628 43.537.51 46.647-20.101 3.416-22.632-16.651-39.264-35.72-34.765-10.221 2.412-18.21 9.53-22.71 20.476M281.528 265.5s-.043.017 0 0M188.869 383.043l-8.803 2.178c-.584-2.844-1.265-6.433-2.073-9.993-.43-1.897-.556-4.275-1.77-5.472-1.367-1.35-4.106-2.564-5.682-2.061-1.322.421-2.435 3.353-2.573 5.25-.31 4.29.698 8.88-4.871 10.75-2.876.966-3.67-.302-4.361-2.978-2.927-11.341-.648-22.912-2.057-34.283-.05-.405-.605-.747-1.282-1.272-.358-.327-.36-.5-.365-1.168-.005-.494-.012-.96-.012-.96.004-.178.007-.356.009-1.034-.002-.5-.009-.966-.009-.966.004-.178.007-.356.009-1.034-.002-.5-.009-.966-.009-.966-.003-.439-.006-.877-.029-1.919-.023-.786-.027-.97-.03-1.153 0 0 .025.043.334-.072.888-6.186 1.749-12.246 1.983-18.33.4-10.388.586-20.792.453-31.185-.032-2.479-1.679-4.937-2.583-7.406-.045-3.003-.09-6.006-.156-9.74-.023-.917-.026-1.104-.029-1.291 0 0 .024-.438.016-.932l-.018-1.044s.027.04.41-.042c2.173-.33 3.966-.815 5.752-.788 15.042.229 30.083.771 45.123.698 3.911-.02 7.814-1.871 11.72-2.88 0 0 .039.037.293.03.437-.011.62-.014.803-.017.471.064.943.129 1.771.203.303 40.32.248 80.629-.247 121.392-4.672.125-6.523-1.487-5.662-6.302.491-2.752-.45-6.25-1.9-8.74-2.057-3.532-5.434-3.3-7.04.425-2.005 4.645-3.19 9.643-5.23 16.068-1.344-2.666-2.293-4.011-2.72-5.506-.905-3.173-1.444-6.45-2.382-9.612-.142-.481-1.61-.57-2.612-1.157-3.174-2.511-3.83-.39-3.96 1.96-.211 3.775-.155 7.565-.211 11.349m8.185-44.284c1.637 5.366 6.234 3.632 9.415 3.089 1.758-.3 3.924-3.59 4.25-5.778.676-4.555.382-9.278.255-13.925-.355-12.953-.331-25.98-5.527-38.228-.597-1.409-1.644-2.628-2.792-4.546l-3.952-2.925c-.905 1.847-2.541 3.67-2.6 5.544-.53 17.092-.842 34.193-1.03 51.294-.017 1.586 1.263 3.186 1.981 5.475m-16.798-61.051c-6.8-3.105-10.139-1.088-10.191 6.406-.115 16.328-.123 32.657-.084 48.985.004 1.6.634 3.198 1.13 5.503 4.299 5.341 10.575 5.416 12.742-.004.974-2.437 1.615-5.18 1.625-7.788.016-3.797-.928-7.591-1.016-11.397-.273-11.72-.186-23.452-.611-35.166-.077-2.108-1.918-4.153-3.595-6.54m23.215-.209s.043-.017 0 0M155.1 465.255c3.068-3.831 5.726-3.579 8.812 0 3.175 3.683 7.015 6.783 10.323 10.36 2.278 2.464 3.676 5.414.376 8.205-5.322 4.5-10.75 8.878-15.98 13.182-1.092-2.491-2.038-4.652-3.293-6.914-.31-.103-.335-.1-.324-.342s.005-.714.005-.714c.005-.173.01-.345.372-.932 1.982-5.4 3.131-10.36-.353-15.097-.016-.443-.032-.887.236-1.76 2.284-2.045 2.039-3.297-.325-4.208 0 0 .038-.04.03-.294-.011-.438-.014-.622-.017-.806 0 0 .088-.454.137-.68"/><path fill="#BEBAA9" d="M393.699 262.777c-.292 1.067-.887 2.528-1.48 2.527-9.471-.017-18.944-.436-28.412-.332-14.979.164-29.954.735-44.933.895-1.917.02-3.85-1.39-5.808-2.532 6.76-.682 13.549-1.174 20.342-1.218 17.857-.117 35.716-.053 53.575-.02 2.137.003 4.275.257 6.716.68M422.26 264.935c-.133-.38-.265-.761-.425-1.445 4.312-.65 8.655-1.322 12.992-1.285 17.47.15 34.938.52 52.92 1.016.713.45.95.648 1.224.8.168.019.335.038.746.273.243.217.233.642.233.642-.022.174-.045.348-.374.787-.713.272-1.118.28-1.995.283-22.088-.36-43.705-.716-65.321-1.071M217.682 262.932c-3.622 1.027-7.525 2.879-11.436 2.898-15.04.073-30.081-.469-45.123-.698-1.786-.027-3.58.458-5.77.769.08-4.677 3.949-3.315 6.5-3.35 7.894-.107 15.795.385 23.693.394 9.475.01 18.95-.25 28.424-.356 1.141-.013 2.285.21 3.712.343M279.853 262.755c-1.609 1.184-3.377 3.082-5.148 3.084-8.492.01-16.985-.469-25.476-.823-6.156-.257-12.308-.591-18.842-.972-.418-.256-.457-.431-.536-.873a213 213 0 0 1 15.058-.572c11.595-.043 23.19-.007 34.944.156M155.095 279.438c.957 2 2.604 4.458 2.636 6.937.133 10.393-.052 20.797-.453 31.184-.234 6.085-1.095 12.145-2.001 18.311-.297-18.59-.266-37.277-.182-56.432M310.851 262.872c-1.084 1.145-2.31 2.936-3.52 2.925-7.342-.067-14.683-.514-22.018-.936-.699-.04-1.357-.785-2.18-1.573 9.096-.449 18.34-.526 27.718-.416M413.333 264.778c-4.51.465-8.897.824-13.282.82-.973-.001-1.944-1.283-2.99-2.329 5.502-.43 11.079-.505 16.847-.392-.023.681-.237 1.173-.575 1.901M154.89 473.168c3.632 4.572 2.483 9.533.502 14.673-.453-4.732-.552-9.62-.502-14.673M154.953 467.337c2.36.609 2.605 1.86.282 3.575-.307-1.024-.293-2.15-.282-3.575"/><path fill="#E6AB6C" d="M149.094 374.986a39 39 0 0 1 .078-2.59l.675.024c0 .933.012 1.866-.016 2.797-.004.117-.214.305-.34.315-.107.008-.23-.193-.397-.546M149.032 427.509c.06-.878.135-1.497.21-2.115l.611.026c0 .931.013 1.862-.015 2.792-.003.12-.212.234-.325.351-.156-.265-.311-.53-.481-1.054M149.853 503.635c-.043.477-.136.768-.23 1.06-.175-.187-.53-.484-.496-.54.168-.271.44-.477.726-.52M149.863 366.346c-.286-.04-.558-.24-.734-.506-.033-.049.318-.354.492-.54.097.287.193.575.242 1.046"/><path fill="#BEBAA9" d="M227.006 262.697c-.63.29-1.515.369-2.838.351.568-.251 1.576-.407 2.838-.351"/><path fill="#D1B690" d="M490.174 264.777c-.224.159-.214-.266-.204-.477.129-.5.304-.75.728-1.083.028.386-.135.894-.524 1.56"/><path fill="#BEBAA9" d="M281.948 262.815c-.073.151-.26.154-.729.153.018-.103.316-.202.729-.153M312.929 262.812c-.075.153-.258.156-.716.156.019-.104.313-.204.716-.156M154.898 341.128c.122-.094.129.372.125.605-.328.047-.41-.201-.125-.605M154.897 489.127c.122-.095.129.376.126.612-.327.046-.409-.205-.126-.612M222.124 262.8c-.043.21-.236.27-.733.34-.009-.157.286-.323.733-.34M218.95 262.816c-.071.15-.254.153-.713.15.017-.102.31-.2.713-.15M154.898 339.128c.122-.094.129.372.125.605-.328.047-.41-.201-.125-.605M154.898 343.128c.122-.094.13.372.126.605-.329.047-.41-.201-.126-.605M154.812 336.071c.152.074.156.258.155.716-.104-.019-.204-.313-.155-.716M395.948 262.815c-.073.151-.26.154-.729.153.018-.103.316-.202.729-.153M154.818 268.053c.148.072.15.26.15.728-.102-.017-.198-.315-.15-.728M154.812 266.071c.152.074.156.258.155.716-.104-.019-.204-.313-.155-.716"/><path fill="#E6AB6C" d="M146.492 427.486c.022-.009-.022.01 0 0"/><path fill="#D1B690" d="M488.851 263.818c-.154.05-.39-.146-.726-.576.162-.068.41.119.726.576"/><path fill="#BEBAA9" d="M154.815 466.048c.15.071.153.255.15.715-.158.093-.332-.078-.45-.282-.033-.058.098-.21.3-.433"/><path fill="#BDBBAF" d="M220.646 465.63c.593 9.435.847 19.012 1.218 28.988-4.253-3.57-8.72-7.439-12.955-11.547-2.244-2.177-2.214-4.615.277-6.881 3.757-3.418 7.419-6.94 11.46-10.56"/><path fill="#E6AB6C" d="M224.048 497.975c4.073 2.58 4.057 4.716-.382 9.198.034-2.502.406-5.075.556-7.91a9 9 0 0 0-.23-.268c.01-.227.018-.454.056-1.02"/><path fill="#E6AB6C" d="M224.002 499.003c.003.004-.182.277-.182.277s.013-.21.093-.248c.08-.037.087-.032.09-.029M222.944 507.24c.08.219-.068.558-.51.929-.103-.248.09-.527.51-.928"/><path fill="#BABFBD" d="M220.969 441.576c-6.961 2.891-12.878 6.812-17.883 12.1a103 103 0 0 0-5.13 5.833c-2.276 2.802-3.982 3.708-6.998.273-4.536-5.166-9.683-9.846-14.916-14.33-2.798-2.398-6.247-3.355-9.874-.75-2.25 1.617-4.863 2.731-8.485 4.711v-54.326c.971 0 1.303-.063 1.602.01 7.967 1.924 8.574 8.125 8.744 14.742.043 1.66.581 3.7 1.66 4.833 1.104 1.16 3.57 2.35 4.68 1.849 1.452-.656 2.53-2.844 3.083-4.59.576-1.82.246-3.909.466-5.863.97-8.614.991-8.611 10.56-9.627.828 5.867 1.207 11.28 1.645 17.009 2.46 4.184 4.767 1.597 5.46-.479 1.05-3.147.629-6.754 1.32-10.064.402-1.924 1.757-3.65 2.683-5.464 1.41 1.265 3.245 2.298 4.096 3.866.713 1.313-.116 3.397.435 4.88 1.014 2.73 2.54 5.27 3.884 8.22 2.367 2.494 4.869 2.107 6.113-.958.714-1.757.268-3.988.996-5.733 1.46-3.5-.606-9.248 5.863-9.73.024 14.373.048 28.746-.004 43.587"/><path fill="#F2B858" d="M188.933 392.923c-1.898.13-3.794.31-5.694.379-8.45.309-9.355 1.485-8.593 10.127.239 2.714-.252 5.492-.408 8.24l-2.158.033c-.255-1.359-.523-2.715-.759-4.078-.188-1.093-.456-2.19-.484-3.292-.27-10.524 2.6-11.05-10.797-13.887 1.267-.58 2.501-1.568 3.806-1.672 6.97-.553 7.012-.517 7.028-7.64.02-8.585.02-8.585 2.718-11.856.6 3.603 1.312 6.106 1.39 8.63.4 12.888-2.045 9.867 10.939 10.4.807.034 1.626-.209 2.868-.127 1.542-.144 2.657-.483 4.044-.688 3.669.365 7.162 1.16 10.422.598 1.744-.3 4.018-2.731 4.42-4.56.925-4.206.851-8.632 1.305-14.57 1.366 3.146 3.297 5.555 2.724 6.628-2.444 4.58-.484 8.364 1.084 12.304l8.182 1.16c.036.641.072 1.283.046 2.572-.106.863-.149 1.079-.504 1.328-3.041.388-5.77.742-8.667.949-.706.033-1.243.215-1.78.397.401.59.804 1.179 1.152 1.797-.054.029-.12.13-.257.154s-.222.354-.222.354.347.16.386.498c.064.566.089.792-.166 1.222-.094 1.653.092 3.103.24 4.894-.063.568-.088.794-.249 1.044-.135.022-.212.35-.212.35s.348.15.355.52c.003.615-.003.861-.143 1.13-.135.022-.212.35-.212.35s.348.15.36.572c.057 1.263.101 2.104-.15 3.036-.98.49-1.663.89-3.085 1.723 0-4.939-.448-9.31.12-13.545.634-4.726-2.083-5.905-5.555-6.22-3.479-.317-7.018.031-10.846.019-.745-.124-1.173-.178-1.748-.392-.398.284-.65.727-.883 1.16.02-.01-.017-.04-.017-.04"/><path fill="#BEBAA9" d="M221.027 388.651c-2.76.017-5.465-.366-8.239-.76-1.568-3.94-3.528-7.724-1.084-12.303.573-1.073-1.358-3.482-2.724-6.628-.454 5.938-.38 10.364-1.305 14.57-.402 1.829-2.676 4.26-4.42 4.56-3.26.561-6.753-.233-10.317-.997-.028-6.036.111-11.539.25-17.042.854.27 2.322.359 2.464.84.938 3.162 1.477 6.44 2.383 9.612.426 1.495 1.375 2.84 2.72 5.506 2.04-6.425 3.224-11.423 5.228-16.068 1.607-3.724 4.984-3.957 7.04-.426 1.451 2.49 2.392 5.989 1.9 8.74-.86 4.816.991 6.428 5.596 6.77.437 1.084.502 2.155.508 3.626"/><path fill="#B8BBB3" d="M211.243 410.128c-.045-.84-.09-1.682-.151-3.075-.018-.55-.008-.815-.008-.815.005-.246.01-.492.003-1.237-.013-.499-.003-.763-.003-.763.026-.227.051-.453.292-1.281.097-2.013-.02-3.425-.138-4.838-.025-.226-.05-.452-.117-1.15-.042-.473-.025-.744-.025-.744s.067-.101.328-.194c.37-.723.479-1.353.588-1.982 2.73-.355 5.459-.71 8.761-1.07.747.01.921.024 1.095.039a470 470 0 0 1-.817 4.617c-6.547.835-4.482 6.582-5.94 10.083-.729 1.745-.283 3.976-.997 5.733-1.244 3.065-3.746 3.452-5.758.925 2.58-.736 4.291-1.464 2.887-4.248"/><path fill="#BABFBD" d="M221.828 392.747c-.134.256-.308.241-.743.2-.218-.244-.175-.46-.061-1.002.301-.04.532.245.804.802"/><path fill="#D9E9E7" d="M193.04 369.734c.01 5.82-.13 11.323-.374 17.224a8.35 8.35 0 0 1-3.59 1.216c-.166-1.637-.191-3.07-.212-4.818.061-4.097.005-7.887.215-11.662.131-2.35.787-4.471 3.961-1.96"/><path fill="#D4E5E1" d="M189.98 391.964c.428.054.856.108 1.612.663.614 3.586 1.382 6.723 1.064 9.745-.382 3.638-1.686 7.18-2.592 10.764-.379-5.414-.758-10.828-1.175-16.713.01-1.227.057-1.984.074-3.12-.03-.38.007-.349.226-.432.41-.358.6-.633.79-.907"/><path fill="#BDBBAF" d="M489.89 337.627c-.32 3.123-.617 5.82-1.283 8.793-.988-4.148-1.607-8.571-2.294-13.484-1.967 1.624-3.788 3.214-5.7 4.687-4.249 3.274-9.685 2.87-13.46-1.14 13.06-3.244 16.857-9.751 13.15-21.461 2.87-.351 5.313-.698 7.984-.726.68 3.106 1.13 5.894 1.581 8.682.01.764.018 1.529-.188 2.977-.081 2.795.053 4.906.186 7.018.015 1.41.03 2.82.024 4.654"/><path fill="#B8BBB3" d="M489.829 284.975c.009.767.018 1.533-.189 3.007-.679 5.483-1.142 10.259-1.863 14.924-3.787-1.116-6.677-.685-9.815 1.856-3.368 2.726-11.582.035-13.558-3.761 7.467 2.64 12.246-1.127 15.071-5.478.789-1.214 1.692-2.353 2.71-3.697.056-.721-.056-1.272-.166-2.24-.002-1.805-.006-3.195.329-4.643 3.251-1.018 5.786-2.031 4.57-6.133-.294-.989 1.284-2.533 2.021-3.377.31 3.477.6 6.51.89 9.542"/><path fill="#D1B690" d="M488.034 303.016c.464-4.775.927-9.55 1.592-14.65.604-.052 1.363.224 1.36.491-.137 11.173-.341 22.345-.827 33.819-.742-2.486-1.193-5.274-1.732-8.751-.19-4.096-.29-7.503-.393-10.91M490.117 284.703c-.578-2.76-.868-5.793-1.163-9.605-.023-1.224-.04-1.67.185-2.138.244-.022.733-.046.733-.046.178 3.839.356 7.678.245 11.79M490.107 332.802c-.374-1.94-.508-4.052-.441-6.464.36 1.897.52 4.094.44 6.464"/><path fill="#B8BBB3" d="M489.89 272.56c-.018.354-.507.378-1.033.353-1.042-.505-1.559-.986-2.075-1.466.704-.476 1.409-.952 2.353-1.408.24.02.72.04.72.04.017.71.034 1.418.034 2.481"/><path fill="#D1B690" d="M490.006 269.777c-.15.302-.631.282-.855-.086-.515-1.472-.807-2.576-1.1-3.68.407-.008.812-.016 1.52-.025.397 1.162.49 2.326.435 3.791"/><path fill="#BABEBC" d="M487.58 266.006c.764 1.11 1.056 2.213 1.331 3.665-.72.824-1.425 1.3-2.13 1.776.517.48 1.034.961 1.832 1.488.3.492.318.939.321 1.72-.732 1.622-2.31 3.166-2.016 4.155 1.216 4.102-1.319 5.115-4.818 5.91-2.758-2.016-4.929-3.869-7.356-5.97-1.97-.595-3.728-1.385-5.384-1.21-5.283.56-8.712 3.749-10.49 8.632-1.92 5.273.484 9.281 4.245 13.08.374.739.632 1.227.89 1.715 2.375 3.83 10.59 6.521 13.957 3.795 3.138-2.541 6.028-2.972 9.815-1.856.36 3.516.46 6.923.422 10.7-2.583.718-5.025 1.065-8.187 1.239-1.115-.468-1.49-.8-1.912-1.054-6.472-3.9-13.494-3.103-17.275 2.138-3.21 4.45-4.824 12.248 2.308 17.557.918.684 1.312 2.073 2.014 3.313.377.135.688.093 1.17-.002.171-.053.522-.133.522-.133 4.09 3.828 9.525 4.233 13.774.959 1.912-1.473 3.733-3.063 5.7-4.687.687 4.913 1.306 9.336 2.277 13.92.358 2.849.364 5.538.056 8.741-.849 1.215-1.977 2.101-1.826 2.587 1.772 5.668-1.552 8.117-6.007 9.936 0 0-.423-.136-.703-.535-.904-.768-1.528-1.138-2.152-1.507 0 0 .046-.051-.192-.301-6.36-5.672-12.619-2.11-18.993-.82-2.739.555-5.8-.355-8.693-.753-1.073-.147-2.085-.732-3.124-1.118 0 0 .04-.028-.175-.248-.767-.389-1.318-.558-1.87-.727 0 0 .08-.053-.147-.258-.836-.373-1.446-.54-2.362-.709-1.255-.337-2.205-.672-3.528-1.02a16 16 0 0 0-1.252.027c-.13.015-.391-.026-.764-.035-.62.004-.869.017-1.364.196-4.608 2.747-8.97 5.328-13.332 7.908-.007-34.113-.015-68.227.037-102.813 21.677-.117 43.294.238 65.382.599m-38.053 50.58c-1.214-1.15-2.428-2.298-4.29-3.804-5.475-2.594-11.5-1.423-15.253 2.965-4.016 4.694-3.676 10.149 1.326 16.786.913.811 1.827 1.622 2.279 2.565-.131.098-.311.171-.378.302-.066.128-.086.406-.01.464 8.276 6.33 19.143 2.425 20.918-7.653.474-2.695-.19-5.58.195-8.304.612-4.334-1.364-4.178-4.787-3.321m.937-33.083a1680 1680 0 0 0-6.033-4.957c-5.833-2.157-10.855-.98-14.288 3.351-3.881 4.895-3.921 9.065.18 15.668 1.545 1.452 3.092 2.904 4.743 5.162.186.458.358 1.308.56 1.315 4.034.141 8.823 1.574 11.919-.102 3.908-2.116 7.806-6.347 7.04-11.675-.403-2.8 1.085-7.166-4.121-8.762m36.034 67.026s-.017-.043 0 0"/><path fill="#BDBBAF" d="M480.973 368.423c4.295-2.122 7.62-4.571 5.847-10.239-.151-.486.977-1.372 1.816-2.139.256 5.009.377 10.095.065 15.154-.112 1.816-1.272 3.567-2.206 5.515-1.956-2.551-3.66-5.27-5.522-8.29"/><path fill="#E6AB6C" d="M143.005 273.57c.002 1.18 0 1.93.001 3.054-.656-.185-1.853-.714-1.887-1.31-.187-3.269-.09-6.554-.09-9.833l1.43-.141c.181 2.599.362 5.198.546 8.23M141.985 284.279c-.222-.52-.213-1.035-.203-1.55.155.004.447.005.448.012.01.515-.002 1.03-.245 1.538"/><path fill="#DDA166" d="M439.248 360.137c.95.335 1.899.67 3.216 1.237.368.233.475.698.475.698q-1.242-.031-2.485-.057c-7.029-.135-7.029-.134-5.76 5.759-2.832 2.84-5.346 5.433-7.947 7.934-1.036.996-2.255 3.135-3.325-.395.122-.73.142-1.022.163-1.313l-.67.919c-.823-.352-1.647-.704-2.717-.981.388-1.656 1.021-3.386 1.81-5.417a228 228 0 0 1 13.655-8.07c.8-.126 1.184-.226 1.568-.326 0 0 .26.041.558.17.685.033 1.072-.063 1.46-.158"/><path fill="#DEA164" d="M466.089 365.013c1.822 5.036-.89 8.867-7.86 10.925-.74-1.76-1.489-3.539-2.087-5.981 3.416-2.09 6.681-3.518 9.947-4.944"/><path fill="#BDBBAF" d="M466.527 364.995c-3.704 1.444-6.97 2.871-10.42 4.6-1.495.03-3.13.156-4.044-.596-1.835-1.508-3.276-3.495-4.993-5.598.925.07 1.937.656 3.01.803 2.893.398 5.954 1.308 8.693.753 6.374-1.29 12.633-4.852 18.966.839-3.45-.094-7.112-.457-11.212-.801M478.072 366.333c.51.114 1.134.484 1.858 1.121-.515-.11-1.13-.487-1.858-1.12M445.06 362.377c.403-.097.954.072 1.699.464-.39.083-.97-.058-1.7-.464M443.269 362.149c-.33-.077-.437-.542-.499-.772.548-.063 1.158.103 1.974.519-.245.275-.695.303-1.475.253"/><path fill="#F6BC54" d="M294.573 300.229c4.382-10.608 12.37-17.727 22.591-20.139 19.069-4.499 39.136 12.133 35.72 34.765-3.11 20.61-27.687 33.73-46.647 20.101-9.238-6.64-14.986-14.972-13.395-26.93.335-2.514 1.064-4.975 1.73-7.797m19.616-1.716c-1.47 1.736-3.225 3.304-4.354 5.239-2.978 5.102-1.553 12.63 2.92 16.837 4.78 4.496 13.072 5.094 19.358 1.395 3.874-2.278 6.573-9.995 5.227-14.938-2.804-10.294-10.96-13.504-23.151-8.533"/><path fill="#D4E5E1" d="M294.008 478.02c-4.42-2.711-3.374-7.05-2.643-10.799.758-3.885 4.486-3.172 7.437-3.286 15.95-.614 31.898-1.326 47.853-1.746 1.996-.053 4.032 1.422 6.252 2.91 2.096 11.378.018 13.978-10.683 13.828-16.074-.224-32.145-.597-48.216-.907M294.997 413.017c-5.039-1.372-4.23-5.358-3.716-8.913.5-3.45 3.12-4.175 6.302-4.161 15.26.066 30.521-.032 45.782.024 3.013.011 6.023.446 9.407 1.236 2.029 9.367.063 11.76-8.835 11.767q-24.47.022-48.94.047"/><path fill="#D9E9E7" d="M293 386.998c-.527-2.74-1.872-5.685-1.262-8.144.343-1.384 3.89-2.72 6.035-2.79 15.883-.507 31.775-.74 47.666-.917 2.044-.023 4.097.771 6.364 1.858-.508 2.163-.974 4.717-2.004 4.969-5.416 1.325-10.95 2.624-16.49 2.861-5.747.246-11.546-.754-17.327-1.145-.62-.042-1.258.433-1.907.514-2.45.304-4.915.49-7.361.822-4.576.62-9.143 1.31-13.713 1.972"/><path fill="#CBDAD3" d="M293.119 387.248c4.452-.911 9.019-1.602 13.595-2.222 2.446-.332 4.911-.518 7.361-.822.65-.08 1.287-.556 1.907-.514 5.78.391 11.58 1.39 17.328 1.145 5.539-.237 11.073-1.536 16.49-2.861 1.029-.252 1.495-2.806 2.237-4.657.582.16 1.147.679 1.747 1.741-.683 9.153-1.531 9.932-10.347 9.929-16.465-.006-32.93-.027-49.394-.042-.27-.482-.538-.965-.924-1.697"/><path fill="#B8BBB3" d="M294.836 413.226c16.474-.225 32.787-.242 49.1-.256 8.9-.008 10.865-2.4 9.15-11.594 3.934 2.007 3.525 6.126 2.456 9.3-.756 2.245-3.779 4.797-6.143 5.215-5.642.998-11.49.992-17.26 1.069-10.384.137-20.773.167-31.153-.06-2.384-.053-6.086 1.05-6.15-3.674M294.092 478.381c15.987-.05 32.058.322 48.132.546 10.7.15 12.78-2.45 10.882-13.5 5.576 2.773 2.563 7.832 2.377 12.003-.185 4.124-4.414 5.096-7.405 5.116-14.85.1-29.71-.146-44.55-.698-3.151-.118-6.236-2.024-9.436-3.467M293.988 389.202c16.52-.242 32.984-.221 49.45-.215 8.815.003 9.663-.776 10.491-9.677 1.156 2.264 2.976 4.83 2.949 7.375-.016 1.5-2.754 3.82-4.633 4.282-4.617 1.134-9.447 1.936-14.19 1.924-12.668-.031-25.34-.454-37.998-.998-2.072-.09-4.084-1.587-6.069-2.69"/><path fill="#BEBAA9" d="M281.508 265.51c-.022.008.021-.009 0 0"/><path fill="#D4E5E1" d="M170.954 337.896c-.339-1.6-.97-3.197-.973-4.797-.039-16.328-.03-32.657.084-48.985.052-7.494 3.39-9.511 10.602-5.84.696 2.855 1.213 5.144 1.227 7.437.08 13.94.049 27.882.051 41.824.003 10.728 0 10.728-10.99 10.36M197.014 338.063c-.678-1.593-1.958-3.193-1.94-4.78.187-17.1.499-34.2 1.03-51.293.058-1.873 1.694-3.697 2.599-5.544 1.317.975 2.635 1.95 4.134 3.636 5.122 17.686 4.166 35.107 4.137 52.46-.006 3.738-1.814 5.474-5.489 5.444-1.49-.012-2.98.05-4.47.077"/><path fill="#B8BBB3" d="M197.034 338.411c1.47-.376 2.961-.437 4.451-.425 3.675.03 5.483-1.706 5.489-5.443.029-17.354.985-34.775-3.982-52.155.81.901 1.858 2.12 2.455 3.53 5.196 12.246 5.172 25.274 5.527 38.227.127 4.647.421 9.37-.256 13.925-.325 2.188-2.49 5.477-4.249 5.778-3.18.543-7.778 2.277-9.435-3.437M171.033 338.249c10.913.014 10.915.014 10.912-10.714-.002-13.942.03-27.883-.051-41.824-.014-2.293-.531-4.582-.902-7.282.941 1.665 2.782 3.71 2.859 5.818.425 11.714.338 23.445.61 35.166.09 3.806 1.033 7.6 1.017 11.397-.01 2.608-.65 5.351-1.625 7.788-2.167 5.42-8.443 5.345-12.82-.35M203.492 277.49c.022-.009-.021.008 0 0"/><path fill="#BEBAA9" d="M190.123 413.45c.847-3.898 2.151-7.44 2.533-11.078.318-3.022-.45-6.159-.748-9.676 3.501-.488 7.04-.836 10.519-.52 3.472.316 6.19 1.495 5.555 6.221-.568 4.235-.12 8.606-.12 13.545 1.422-.833 2.106-1.233 3.085-1.723 1.7 2.693-.012 3.42-2.62 3.825-1.67-2.585-3.196-5.125-4.21-7.855-.551-1.483.278-3.567-.435-4.88-.851-1.568-2.687-2.601-4.096-3.866-.926 1.815-2.28 3.54-2.683 5.464-.691 3.31-.27 6.917-1.32 10.064-.693 2.076-3 4.663-5.46.479M210.958 398.323c.397 1.209.515 2.621.455 4.293-.363-1.19-.55-2.64-.455-4.293M211.845 393.9c.058.778-.052 1.408-.368 2.102-.608-.525-1.01-1.115-1.413-1.704.538-.182 1.075-.364 1.78-.397M189.833 391.804c-.044.434-.235.71-.664 1.077.013-.35.266-.793.664-1.077M210.96 396.249c.136-.024.119.247.122.38s-.344-.026-.344-.026.085-.331.222-.354M210.95 404.26c.134-.022.124.242.13.372.005.13-.343-.021-.343-.021s.077-.328.212-.35M210.95 406.26c.134-.022.124.242.13.372.005.13-.343-.021-.343-.021s.077-.328.212-.35"/><path fill="#D4E5E1" d="M465.081 336.621c-.636-1.062-1.03-2.45-1.948-3.135-7.132-5.31-5.518-13.107-2.308-17.557 3.78-5.24 10.803-6.037 17.275-2.138.422.255.797.586 1.485 1.059 4.425 11.882.629 18.39-12.433 21.633-.313.18-.664.26-1.103.259-.615-.041-.792-.081-.968-.121"/><path fill="#CBDAD3" d="M475 278.998c2.171 1.853 4.342 3.706 6.76 5.782.253 1.611.257 3 .078 4.971-.062 1.136.059 1.69.18 2.245-.851 1.174-1.754 2.313-2.543 3.527-2.825 4.35-7.604 8.117-15.071 5.478-.657-.522-.915-1.01-1.091-1.9 4.388-3.549 8.696-6.698 12.946-9.804z"/><path fill="#BABEBC" d="M482.185 291.826c-.288-.384-.41-.939-.35-1.658.294.386.406.937.35 1.658"/><path fill="#D9E9E7" d="M430.998 332.002c-4.689-6.106-5.029-11.561-1.013-16.255 3.754-4.388 9.778-5.559 15.548-2.473 1.182 6.224-1.013 10.812-5.031 14.69-1.003.969-2.012 2.143-3.25 2.608-1.983.746-4.16.98-6.254 1.43M429.999 297.001c-3.776-6.039-3.736-10.21.145-15.104 3.433-4.33 8.455-5.508 14.433-2.806.08.7-.084.902-.035 1 3.963 8.07-5.943 10.785-6.61 17.068-.017.161-.423.416-.632.402-2.436-.161-4.868-.366-7.301-.56M474.744 278.75c.671 3.64 1.086 7.03 1.515 10.547-4.25 3.106-8.558 6.255-13.063 9.554-3.842-3.398-6.246-7.406-4.326-12.679 1.778-4.883 5.207-8.072 10.49-8.632 1.656-.175 3.415.615 5.384 1.21"/><path fill="#CBDAD3" d="M430.16 297.283c2.272-.088 4.704.117 7.14.278.21.014.615-.24.632-.402.667-6.283 10.573-8.998 6.61-17.068-.049-.098.115-.3.32-.773 1.961 1.182 3.782 2.683 5.845 4.861.497 12.597-4.433 17.86-15.745 17.743-1.546-1.453-3.093-2.905-4.801-4.639M431.154 332.268c1.939-.716 4.115-.95 6.098-1.696 1.238-.465 2.247-1.64 3.25-2.608 4.018-3.878 6.213-8.466 5.356-14.511 1.242.835 2.456 1.984 3.932 3.72.579 2.337.896 4.084 1.095 5.935-.278.42-.198.682-.023 1.22-1.504 5.589-4.024 9.841-9.946 10.652-2.245.307-4.574.009-6.864-.014-.914-.81-1.828-1.622-2.898-2.698"/><path fill="#B8BBB3" d="M451.004 323.005a243 243 0 0 1-.974-5.625c2.921-1.65 4.897-1.807 4.285 2.527-.385 2.724.28 5.609-.195 8.304-1.775 10.078-12.642 13.984-20.917 7.653-.077-.058-.057-.336.009-.464.067-.131.247-.204.609-.368 2.521-.043 4.85.255 7.095-.052 5.922-.81 8.442-5.063 9.946-10.9.143-.58.142-1.075.142-1.075M435.014 302.325c11.26-.286 16.19-5.55 15.922-17.92 4.735.694 3.247 5.06 3.65 7.86.766 5.328-3.132 9.559-7.04 11.675-3.096 1.676-7.885.243-11.92.102-.201-.007-.373-.857-.612-1.717"/><path fill="#BDBBAF" d="M486.49 350.508c-.008-.022.009.02 0 0M465.147 336.799c.11-.138.287-.098.73-.003-.042.096-.353.138-.73.003M436.858 360.116c-.011.11-.395.21-.948.17.079-.153.327-.166.948-.17M438.874 360.124c-.013.108-.4.204-.954.156.082-.152.332-.16.954-.156"/><path fill="#E75049" d="M422.993 374.985c.146-.372.369-.679.592-.985-.02.291-.041.582-.21 1.026-.148.153-.305.025-.382-.041"/><path fill="#BCBCB2" d="M314.54 298.362c11.84-4.82 19.995-1.61 22.799 8.684 1.346 4.943-1.353 12.66-5.227 14.938-6.286 3.699-14.578 3.1-19.358-1.395-4.473-4.207-5.898-11.735-2.92-16.837 1.129-1.935 2.884-3.503 4.706-5.39"/><path fill="#BABEBC" d="M450.885 323.108c.12-.103.12.392.12.64-.318.042-.398-.22-.12-.64"/></svg>